<?xml version="1.0" encoding="UTF-8" standalone="no"?>
<!-- Created with Inkscape (http://www.inkscape.org/) -->

<svg
   xmlns:dc="http://purl.org/dc/elements/1.1/"
   xmlns:cc="http://creativecommons.org/ns#"
   xmlns:rdf="http://www.w3.org/1999/02/22-rdf-syntax-ns#"
   xmlns:svg="http://www.w3.org/2000/svg"
   xmlns="http://www.w3.org/2000/svg"
   xmlns:sodipodi="http://sodipodi.sourceforge.net/DTD/sodipodi-0.dtd"
   xmlns:inkscape="http://www.inkscape.org/namespaces/inkscape"
   id="svg2"
   version="1.1"
   inkscape:version="0.48.2 r9819"
   width="341.6675"
   height="157.9725"
   xml:space="preserve"
   sodipodi:docname="FINAVIA_LOGO_fst_BLUE_RGB.pdf"><metadata
     id="metadata8"><rdf:RDF><cc:Work
         rdf:about=""><dc:format>image/svg+xml</dc:format><dc:type
           rdf:resource="http://purl.org/dc/dcmitype/StillImage" /><dc:title></dc:title></cc:Work></rdf:RDF></metadata><defs
     id="defs6"><clipPath
       clipPathUnits="userSpaceOnUse"
       id="clipPath16"><path
         d="m 0,126.378 273.334,0 L 273.334,0 0,0 0,126.378 z"
         id="path18" /></clipPath></defs><sodipodi:namedview
     pagecolor="#ffffff"
     bordercolor="#666666"
     borderopacity="1"
     objecttolerance="10"
     gridtolerance="10"
     guidetolerance="10"
     inkscape:pageopacity="0"
     inkscape:pageshadow="2"
     inkscape:window-width="640"
     inkscape:window-height="480"
     id="namedview4"
     showgrid="false"
     inkscape:zoom="1.431216"
     inkscape:cx="170.83376"
     inkscape:cy="78.986252"
     inkscape:window-x="0"
     inkscape:window-y="0"
     inkscape:window-maximized="0"
     inkscape:current-layer="g10" /><g
     id="g10"
     inkscape:groupmode="layer"
     inkscape:label="FINAVIA_LOGO_fst_BLUE_RGB"
     transform="matrix(1.25,0,0,-1.25,0,157.9725)"><g
       id="g12"><g
         id="g14"
         clip-path="url(#clipPath16)"><g
           id="g20"
           transform="translate(34.7944,40.6611)"><path
             d="m 0,0 1.159,5.441 -0.939,0 c -0.259,0 -0.399,0.067 -0.399,0.213 0,0.143 0.07,0.393 0.165,0.494 0.075,0.067 0.163,0.09 0.334,0.09 l 1.005,0 0.18,0.803 C 1.803,8.48 2.561,9.195 3.654,9.195 4.222,9.195 4.591,9.049 4.823,8.82 4.948,8.684 5.022,8.518 5.022,8.367 5.022,8.049 4.703,7.848 4.671,7.9 4.492,8.156 4.072,8.398 3.614,8.398 2.99,8.398 2.576,7.986 2.353,6.93 L 2.2,6.238 l 1.319,0 C 3.771,6.238 3.926,6.172 3.926,6.01 3.926,5.877 3.855,5.625 3.752,5.531 3.679,5.465 3.584,5.441 3.417,5.441 L 2.04,5.441 0.907,0 C 0.845,-0.311 0.703,-0.432 0.488,-0.432 l -0.109,0 C 0.137,-0.432 -0.07,-0.346 0,0"
             style="fill:#009ed9;fill-opacity:1;fill-rule:nonzero;stroke:none"
             id="path22" /></g><g
           id="g24"
           transform="translate(48.7905,43.9658)"><path
             d="m 0,0 c 0,1.336 -0.954,2.305 -2.179,2.305 -1.551,0 -2.755,-1.41 -2.755,-3.051 0,-1.334 0.955,-2.307 2.184,-2.307 C -1.207,-3.053 0,-1.635 0,0 m -5.844,-0.779 c 0,2.052 1.559,3.875 3.721,3.875 1.67,0 3.033,-1.239 3.033,-3.063 0,-2.064 -1.572,-3.888 -3.718,-3.888 -1.688,0 -3.036,1.257 -3.036,3.076"
             style="fill:#009ed9;fill-opacity:1;fill-rule:nonzero;stroke:none"
             id="path26" /></g><g
           id="g28"
           transform="translate(58.4502,47.0615)"><path
             d="m 0,0 c 0.518,0 0.955,-0.232 0.955,-0.625 0,-0.445 -0.324,-0.613 -0.354,-0.592 -0.183,0.199 -0.451,0.358 -0.857,0.358 -1.077,0 -1.805,-1.36 -2.191,-3.221 l -0.478,-2.326 c -0.073,-0.305 -0.201,-0.426 -0.422,-0.426 l -0.107,0 c -0.236,0 -0.444,0.09 -0.382,0.426 l 1.341,6.252 c 0,0.015 0.077,0.052 0.185,0.052 0.355,0 0.657,-0.173 0.509,-0.968 L -1.857,-1.332 C -1.4,-0.447 -0.817,0 0,0"
             style="fill:#009ed9;fill-opacity:1;fill-rule:nonzero;stroke:none"
             id="path30" /></g><g
           id="g32"
           transform="translate(70.1001,40.9814)"><path
             d="m 0,0 c -0.188,0.197 -0.327,0.418 -0.327,0.623 0,0.4 0.466,0.576 0.496,0.527 0.415,-0.697 1.202,-1.257 2.35,-1.257 1.026,0 1.609,0.466 1.609,1.13 0,0.614 -0.599,0.864 -1.582,1.174 -0.964,0.346 -2.001,0.725 -2.001,1.938 0,1.14 1.029,1.945 2.473,1.945 0.983,0 1.774,-0.33 2.199,-0.775 C 5.45,5.07 5.543,4.854 5.543,4.643 5.543,4.238 5.062,4.096 5.024,4.168 4.673,4.854 3.866,5.313 2.946,5.313 1.929,5.313 1.423,4.797 1.423,4.238 1.423,3.588 2.089,3.324 3.059,2.969 4.001,2.635 5.004,2.254 5.004,1.139 5.004,-0.068 4.042,-0.873 2.46,-0.873 1.371,-0.873 0.486,-0.486 0,0"
             style="fill:#009ed9;fill-opacity:1;fill-rule:nonzero;stroke:none"
             id="path34" /></g><g
           id="g36"
           transform="translate(89.1064,47.0615)"><path
             d="m 0,0 c 1.313,0 2.215,-0.945 2.215,-2.225 0,-0.49 -0.186,-1.267 -0.394,-2.031 -0.196,-0.685 -0.334,-1.242 -0.334,-1.51 0,-0.369 0.197,-0.486 0.58,-0.515 0.02,0 0.041,-0.606 -0.592,-0.606 -0.56,0 -0.9,0.379 -0.9,0.983 0,0.394 0.173,1.052 0.368,1.777 0.191,0.686 0.34,1.359 0.34,1.729 0,0.959 -0.58,1.552 -1.409,1.552 -0.965,0 -1.568,-0.439 -2.228,-1.451 l -0.863,-4.109 c -0.062,-0.336 -0.255,-0.426 -0.502,-0.426 l -0.088,0 c -0.233,0 -0.38,0.08 -0.31,0.426 l 0.72,3.433 c 0.268,1.252 -0.304,2.127 -1.316,2.127 -0.955,0 -1.571,-0.431 -2.222,-1.451 L -7.8,-6.406 c -0.068,-0.346 -0.259,-0.426 -0.496,-0.426 l -0.102,0 c -0.236,0 -0.364,0.09 -0.309,0.426 l 1.333,6.252 c 0,0.015 0.091,0.052 0.2,0.052 0.351,0 0.649,-0.173 0.499,-0.968 L -6.686,-1.104 C -6.156,-0.373 -5.371,0 -4.592,0 -3.544,0 -2.787,-0.564 -2.531,-1.439 -2.008,-0.604 -1.169,0 0,0"
             style="fill:#009ed9;fill-opacity:1;fill-rule:nonzero;stroke:none"
             id="path38" /></g><g
           id="g40"
           transform="translate(102.4424,43.9658)"><path
             d="m 0,0 c 0,1.336 -0.953,2.305 -2.185,2.305 -1.544,0 -2.742,-1.41 -2.742,-3.051 0,-1.334 0.953,-2.307 2.178,-2.307 C -1.206,-3.053 0,-1.635 0,0 m -5.841,-0.779 c 0,2.052 1.567,3.875 3.723,3.875 1.681,0 3.031,-1.239 3.031,-3.063 0,-2.064 -1.561,-3.888 -3.708,-3.888 -1.684,0 -3.046,1.257 -3.046,3.076"
             style="fill:#009ed9;fill-opacity:1;fill-rule:nonzero;stroke:none"
             id="path42" /></g><g
           id="g44"
           transform="translate(114.2593,43.9658)"><path
             d="m 0,0 c 0,1.336 -0.953,2.305 -2.183,2.305 -1.535,0 -2.752,-1.41 -2.752,-3.051 0,-1.334 0.974,-2.307 2.187,-2.307 C -1.211,-3.053 0,-1.635 0,0 m -5.847,-0.779 c 0,2.052 1.571,3.875 3.722,3.875 1.683,0 3.048,-1.239 3.048,-3.063 0,-2.064 -1.573,-3.888 -3.723,-3.888 -1.69,0 -3.047,1.257 -3.047,3.076"
             style="fill:#009ed9;fill-opacity:1;fill-rule:nonzero;stroke:none"
             id="path46" /></g><g
           id="g48"
           transform="translate(120.7017,42.5244)"><path
             d="m 0,0 0.752,3.578 -0.569,0 c -0.269,0 -0.407,0.067 -0.407,0.213 0,0.137 0.072,0.393 0.162,0.494 0.082,0.069 0.176,0.09 0.343,0.09 l 0.638,0 0.137,0.645 c 0.156,0.689 0.359,0.931 0.739,0.931 0.18,0 0.351,-0.088 0.351,-0.105 l -0.331,-1.471 1.672,0 c 0.268,0 0.404,-0.07 0.404,-0.229 C 3.891,4.018 3.821,3.762 3.72,3.668 3.647,3.6 3.557,3.578 3.382,3.578 l -1.729,0 L 0.889,0 c -0.25,-1.184 0.098,-1.623 0.849,-1.623 0.408,0 0.765,0.221 0.913,0.394 0.028,0.034 0.207,-0.162 0.207,-0.421 0,-0.143 -0.056,-0.284 -0.201,-0.424 C 2.478,-2.262 2.1,-2.4 1.598,-2.4 0.36,-2.4 -0.329,-1.598 0,0"
             style="fill:#009ed9;fill-opacity:1;fill-rule:nonzero;stroke:none"
             id="path50" /></g><g
           id="g52"
           transform="translate(133.7319,41.1553)"><path
             d="m 0,0 c 0,0.396 0.162,1.057 0.364,1.766 0.193,0.699 0.337,1.373 0.337,1.738 0,0.963 -0.539,1.557 -1.519,1.557 -1.007,0 -1.687,-0.522 -2.321,-1.592 L -3.966,-0.5 c -0.071,-0.305 -0.2,-0.426 -0.413,-0.426 l -0.117,0 c -0.233,0 -0.432,0.09 -0.384,0.426 l 1.838,8.66 c 0.083,0.32 0.198,0.424 0.425,0.424 l 0.112,0 c 0.249,0 0.446,-0.094 0.374,-0.424 L -2.885,4.648 c 0.491,0.791 1.305,1.258 2.202,1.258 1.454,0 2.316,-0.945 2.316,-2.226 C 1.633,3.191 1.438,2.416 1.232,1.65 1.039,0.965 0.896,0.404 0.896,0.141 c 0,-0.37 0.191,-0.471 0.581,-0.516 0.033,0 0.038,-0.607 -0.599,-0.607 C 0.32,-0.982 0,-0.602 0,0"
             style="fill:#009ed9;fill-opacity:1;fill-rule:nonzero;stroke:none"
             id="path54" /></g><g
           id="g56"
           transform="translate(147.7939,42.5244)"><path
             d="m 0,0 0.734,3.578 -0.569,0 c -0.266,0 -0.401,0.067 -0.401,0.213 0,0.137 0.072,0.393 0.171,0.494 0.076,0.069 0.166,0.09 0.346,0.09 l 0.615,0 0.14,0.645 c 0.161,0.689 0.372,0.931 0.753,0.931 0.18,0 0.343,-0.088 0.343,-0.105 l -0.328,-1.471 1.677,0 c 0.256,0 0.401,-0.07 0.401,-0.229 C 3.882,4.018 3.813,3.762 3.705,3.668 3.635,3.6 3.548,3.578 3.382,3.578 L 1.64,3.578 0.875,0 c -0.24,-1.184 0.109,-1.623 0.852,-1.623 0.405,0 0.763,0.221 0.91,0.394 0.037,0.034 0.215,-0.162 0.215,-0.421 0,-0.143 -0.067,-0.284 -0.2,-0.424 C 2.471,-2.262 2.082,-2.4 1.588,-2.4 0.358,-2.4 -0.342,-1.598 0,0"
             style="fill:#009ed9;fill-opacity:1;fill-rule:nonzero;stroke:none"
             id="path58" /></g><g
           id="g60"
           transform="translate(159.7793,47.0615)"><path
             d="m 0,0 c 0.506,0 0.961,-0.232 0.961,-0.625 0,-0.445 -0.334,-0.613 -0.357,-0.592 -0.194,0.199 -0.456,0.358 -0.879,0.358 -1.063,0 -1.78,-1.36 -2.178,-3.221 l -0.49,-2.326 c -0.067,-0.305 -0.18,-0.426 -0.391,-0.426 l -0.129,0 c -0.246,0 -0.433,0.09 -0.363,0.426 l 1.336,6.252 c 0,0.015 0.078,0.052 0.174,0.052 0.357,0 0.67,-0.173 0.498,-0.968 L -1.855,-1.332 C -1.406,-0.447 -0.832,0 0,0"
             style="fill:#009ed9;fill-opacity:1;fill-rule:nonzero;stroke:none"
             id="path62" /></g><g
           id="g64"
           transform="translate(168.6445,46.2705)"><path
             d="m 0,0 c -1.746,0 -2.771,-1.752 -2.771,-3.326 0,-1.299 0.845,-2.029 1.843,-2.029 1.395,0 2.584,1.183 2.866,2.539 l 0.23,1.101 C 1.871,-0.654 1.162,0 0,0 m -1.045,-6.16 c -1.422,0 -2.643,0.974 -2.643,2.824 0,2.025 1.565,4.127 3.747,4.127 1.115,0 1.968,-0.582 2.339,-1.381 l 0.073,0.35 c 0.138,0.678 0.345,0.929 0.73,0.929 0.172,0 0.352,-0.101 0.352,-0.119 L 2.449,-4.58 c -0.138,-0.645 -0.015,-0.885 0.586,-0.889 0.033,0 0.094,-0.627 -0.607,-0.627 -0.744,0 -1.059,0.496 -0.908,1.366 -0.624,-0.965 -1.583,-1.43 -2.565,-1.43"
             style="fill:#009ed9;fill-opacity:1;fill-rule:nonzero;stroke:none"
             id="path66" /></g><g
           id="g68"
           transform="translate(178.416,40.874)"><path
             d="m 0,0 -0.512,3.992 c -0.14,1.072 -0.426,1.375 -1.066,1.375 -0.027,0 -0.113,0.719 0.631,0.719 0.304,0 0.515,-0.082 0.728,-0.297 C 0.115,5.461 0.27,4.84 0.389,3.91 l 0.4,-3.586 3.4,5.748 C 4.201,6.086 4.793,6.145 4.793,5.623 4.793,5.461 4.727,5.305 4.547,4.979 L 1.418,-0.143 C 1.162,-0.574 0.977,-0.654 0.643,-0.654 0.262,-0.654 0.057,-0.451 0,0"
             style="fill:#009ed9;fill-opacity:1;fill-rule:nonzero;stroke:none"
             id="path70" /></g><g
           id="g72"
           transform="translate(189.959,43.9658)"><path
             d="m 0,0 c 2.391,0 3.021,0.637 3.021,1.336 0,0.48 -0.466,0.969 -1.486,0.969 C 0.141,2.305 -1.004,1.338 -1.473,0.1 -0.912,0.033 -0.398,0 0,0 m -1.686,-1.092 c 0,-1.168 0.694,-1.974 2.002,-1.974 1.022,0 1.704,0.373 2.243,1.097 0.021,0.045 0.462,-0.09 0.462,-0.435 0,-0.203 -0.07,-0.346 -0.298,-0.578 -0.584,-0.581 -1.346,-0.875 -2.442,-0.875 -1.871,0 -2.879,1.148 -2.879,2.707 0,2.39 1.813,4.246 4.182,4.246 1.484,0 2.348,-0.713 2.348,-1.758 0,-1.305 -0.864,-2.106 -3.832,-2.106 -0.528,0 -1.084,0.038 -1.743,0.1 -0.009,-0.133 -0.043,-0.285 -0.043,-0.424"
             style="fill:#009ed9;fill-opacity:1;fill-rule:nonzero;stroke:none"
             id="path74" /></g><g
           id="g76"
           transform="translate(198.7734,41.6787)"><path
             d="m 0,0 1.623,7.637 c 0.07,0.324 0.184,0.439 0.414,0.439 l 0.109,0 c 0.245,0 0.458,-0.105 0.385,-0.439 L 0.889,0.016 C 0.748,-0.639 0.881,-0.877 1.564,-0.877 1.58,-0.877 1.623,-1.51 0.916,-1.51 0.094,-1.51 -0.207,-0.979 0,0"
             style="fill:#009ed9;fill-opacity:1;fill-rule:nonzero;stroke:none"
             id="path78" /></g><g
           id="g80"
           transform="translate(205.8438,41.6787)"><path
             d="m 0,0 1.621,7.637 c 0.07,0.324 0.199,0.439 0.416,0.439 l 0.119,0 c 0.233,0 0.438,-0.105 0.369,-0.439 L 0.902,0.016 C 0.766,-0.639 0.889,-0.877 1.576,-0.877 1.588,-0.877 1.621,-1.51 0.91,-1.51 0.105,-1.51 -0.211,-0.979 0,0"
             style="fill:#009ed9;fill-opacity:1;fill-rule:nonzero;stroke:none"
             id="path82" /></g><g
           id="g84"
           transform="translate(214.3535,49.0283)"><path
             d="M 0,0 C 0,0.357 0.207,0.705 0.633,0.705 1.041,0.705 1.248,0.537 1.248,0.252 1.248,-0.1 1.041,-0.461 0.613,-0.461 0.207,-0.461 0,-0.299 0,0 m -1.43,-7.35 1.039,4.852 c 0.043,0.309 0.178,0.432 0.399,0.432 l 0.111,0 c 0.236,0 0.445,-0.104 0.371,-0.432 l -1.013,-4.84 c -0.141,-0.65 -0.032,-0.889 0.652,-0.889 0.016,0 0.066,-0.628 -0.643,-0.628 -0.824,0 -1.123,0.523 -0.916,1.505"
             style="fill:#009ed9;fill-opacity:1;fill-rule:nonzero;stroke:none"
             id="path86" /></g><g
           id="g88"
           transform="translate(223.8828,47.0615)"><path
             d="m 0,0 c 1.447,0 2.326,-0.945 2.326,-2.225 0,-0.49 -0.199,-1.267 -0.404,-2.031 -0.201,-0.685 -0.344,-1.242 -0.344,-1.51 0,-0.369 0.203,-0.486 0.602,-0.515 0.017,0 0.027,-0.606 -0.606,-0.606 -0.56,0 -0.904,0.379 -0.904,0.983 0,0.394 0.187,1.052 0.381,1.777 0.181,0.686 0.349,1.359 0.349,1.729 0,0.959 -0.543,1.552 -1.519,1.552 -1.01,0 -1.699,-0.521 -2.32,-1.59 l -0.842,-3.97 c -0.073,-0.305 -0.198,-0.426 -0.41,-0.426 l -0.102,0 c -0.25,0 -0.461,0.09 -0.393,0.426 l 1.338,6.252 c 0,0.015 0.073,0.052 0.2,0.052 0.347,0 0.64,-0.173 0.492,-0.968 l -0.03,-0.168 C -1.686,-0.447 -0.887,0 0,0"
             style="fill:#009ed9;fill-opacity:1;fill-rule:nonzero;stroke:none"
             id="path90" /></g><g
           id="g92"
           transform="translate(235.1621,46.2705)"><path
             d="m 0,0 c -1.625,0 -2.744,-1.561 -2.744,-3.035 0,-1.373 0.951,-2.151 1.951,-2.151 1.254,0 2.414,0.918 2.688,2.241 l 0.281,1.244 C 1.863,-0.646 1.16,0 0,0 m 2.496,-0.24 c 0.113,0.678 0.328,0.929 0.711,0.929 0.172,0 0.35,-0.101 0.35,-0.119 L 2.176,-5.879 c -0.383,-1.816 -1.535,-2.892 -3.364,-2.892 -1.189,0 -1.98,0.388 -2.47,0.876 -0.342,0.321 -0.483,0.645 -0.483,0.879 0,0.614 0.659,0.709 0.666,0.662 0.276,-0.96 0.981,-1.589 2.385,-1.589 1.209,0 2.069,0.711 2.391,2.158 l 0.222,1.084 C 0.912,-5.516 0.119,-5.973 -0.91,-5.973 c -1.403,0 -2.748,0.998 -2.748,2.938 0,1.906 1.627,3.826 3.724,3.826 1.108,0 1.971,-0.582 2.334,-1.381 l 0.096,0.35 z"
             style="fill:#009ed9;fill-opacity:1;fill-rule:nonzero;stroke:none"
             id="path94" /></g><g
           id="g96"
           transform="translate(52.1616,63.5776)"><path
             d="m 0,0 0.571,0 c 1.16,0 1.7,0.574 2.005,1.813 l 1.77,8.451 8.799,0 c 0.809,0 1.195,0.119 1.467,0.39 0.423,0.42 0.646,1.424 0.646,1.92 0,0.658 -0.573,1.043 -1.651,1.043 l -8.609,0 1.684,7.92 11.775,0 c 0.839,0 1.223,0.111 1.486,0.418 0.435,0.462 0.7,1.494 0.7,1.998 0,0.687 -0.614,1.072 -1.694,1.072 l -13.337,0 c -1.421,0 -2.344,-0.721 -2.58,-2.188 L -1.42,1.963 C -1.69,0.693 -1.119,0 0,0"
             style="fill:#009ed9;fill-opacity:1;fill-rule:nonzero;stroke:none"
             id="path98" /></g><g
           id="g100"
           transform="translate(187.6367,63.5776)"><path
             d="m 0,0 0.59,0 c 1.101,0 1.687,0.545 1.947,1.813 l 4.541,21.41 c 0.274,1.226 -0.301,1.964 -1.422,1.964 l -0.547,0 c -1.142,0 -1.685,-0.58 -1.988,-1.814 L -1.424,1.963 C -1.691,0.693 -1.119,0 0,0"
             style="fill:#009ed9;fill-opacity:1;fill-rule:nonzero;stroke:none"
             id="path102" /></g><g
           id="g104"
           transform="translate(164.834,63.5015)"><path
             d="m 0,0 c 1.191,0 1.84,0.352 2.486,1.391 l 11.625,19.485 c 0.676,1.155 0.95,1.766 0.95,2.384 0,2.189 -2.883,2.116 -2.883,2.038 L 0.723,4.846 -2.342,23.26 c -0.199,1.345 -0.967,1.999 -1.965,1.999 -1.234,0 -2.423,-0.926 -2.353,-1.277 L -2.387,1.691 C -2.162,0.623 -1.57,0 0,0"
             style="fill:#009ed9;fill-opacity:1;fill-rule:nonzero;stroke:none"
             id="path106" /></g><g
           id="g108"
           transform="translate(209.5762,74.2319)"><path
             d="M 0,0 6.082,10.492 8,0 0,0 z m -5.865,-10.688 4.248,7.493 9.986,0 1.047,-5.496 c 0.246,-1.391 0.969,-1.957 1.965,-1.957 1.191,0 2.264,0.884 2.228,1.236 L 9.145,13.181 c -0.176,0.897 -0.676,1.466 -2.534,1.466 -1.496,0 -2.041,-0.386 -2.533,-1.233 L -7.756,-6.35 c -0.691,-1.152 -0.922,-1.724 -0.922,-2.418 0,-2.156 2.737,-1.994 2.813,-1.92"
             style="fill:#009ed9;fill-opacity:1;fill-rule:nonzero;stroke:none"
             id="path110" /></g><g
           id="g112"
           transform="translate(96.4102,63.5776)"><path
             d="M 0,0 0.46,0 C 1.566,0 2.074,0.574 2.334,1.813 L 6.139,19.72 14.947,1.584 C 15.557,0.467 16.064,0 17.059,0 l 0.313,0 c 1.266,0 2.002,0.771 2.261,2.117 l 4.498,21.106 c 0.275,1.267 -0.273,1.964 -1.344,1.964 l -0.463,0 c -1.117,0 -1.611,-0.58 -1.891,-1.814 L 16.778,6.113 8.3,23.609 c -0.579,1.117 -1.081,1.578 -2.126,1.578 l -0.645,0 c -1.304,0 -2.114,-0.809 -2.423,-2.27 L -1.352,1.963 C -1.63,0.693 -1.082,0 0,0"
             style="fill:#009ed9;fill-opacity:1;fill-rule:nonzero;stroke:none"
             id="path114" /></g><g
           id="g116"
           transform="translate(80.6982,63.5776)"><path
             d="m 0,0 0.575,0 c 1.12,0 1.691,0.545 1.962,1.813 l 4.535,21.41 c 0.272,1.23 -0.306,1.964 -1.428,1.964 l -0.534,0 c -1.158,0 -1.69,-0.58 -2,-1.814 L -1.425,1.963 C -1.691,0.693 -1.116,0 0,0"
             style="fill:#009ed9;fill-opacity:1;fill-rule:nonzero;stroke:none"
             id="path118" /></g><g
           id="g120"
           transform="translate(135.314,74.2319)"><path
             d="M 0,0 6.082,10.492 8.001,0 0,0 z m -5.887,-10.688 4.272,7.493 9.993,0 1.039,-5.496 c 0.25,-1.391 0.968,-1.957 1.969,-1.957 1.188,0 2.265,0.884 2.227,1.236 L 9.152,13.181 c -0.189,0.897 -0.697,1.466 -2.539,1.466 -1.499,0 -2.035,-0.386 -2.533,-1.233 L -7.752,-6.35 c -0.703,-1.152 -0.934,-1.724 -0.934,-2.418 0,-2.156 2.739,-1.994 2.799,-1.92"
             style="fill:#009ed9;fill-opacity:1;fill-rule:nonzero;stroke:none"
             id="path122" /></g></g></g></g></svg>