<?xml version="1.0" encoding="UTF-8" standalone="no"?>
<!-- Created with Inkscape (http://www.inkscape.org/) -->

<svg
   xmlns:dc="http://purl.org/dc/elements/1.1/"
   xmlns:cc="http://creativecommons.org/ns#"
   xmlns:rdf="http://www.w3.org/1999/02/22-rdf-syntax-ns#"
   xmlns:svg="http://www.w3.org/2000/svg"
   xmlns="http://www.w3.org/2000/svg"
   version="1.1"
   viewbox = "0 0 765 445.08624"
   width="765"
   height="445.08624"
   id="svg2"
   xml:space="preserve"><metadata
     id="metadata8"><rdf:RDF><cc:Work
         rdf:about=""><dc:format>image/svg+xml</dc:format><dc:type
           rdf:resource="http://purl.org/dc/dcmitype/StillImage" /><dc:title></dc:title></cc:Work></rdf:RDF></metadata><defs
     id="defs6"><clipPath
       id="clipPath20"><path
         d="m 0,356.069 612,0 L 612,0 0,0 0,356.069 z"
         id="path22" /></clipPath></defs><g
     transform="matrix(1.25,0,0,-1.25,0,445.08625)"
     id="g10"><path
       d="m 423.508,301.549 -33.619,0 0,19.02 33.619,0 0,-19.02 z"
       id="path12"
       style="fill:#767779;fill-opacity:1;fill-rule:evenodd;stroke:none" /><path
       d="m 81.604,301.547 -28.444,0 0,-149.735 28.444,0 0,149.735 z m 16.661,19.022 0,-184.497 -45.163,0 0,-68.818 -16.602,0 0,253.315 61.765,0 z"
       id="path14"
       style="fill:#cf3c3d;fill-opacity:1;fill-rule:evenodd;stroke:none" /><g
       id="g16"><g
         clip-path="url(#clipPath20)"
         id="g18"><g
           transform="translate(575.085,320.5688)"
           id="g24"><path
             d="m 0,0 c -0.033,-19.151 0,-183.276 0,-185.055 l -16.955,0 0,166.035 -16.579,0 0,-165.988 -17.086,0 c 0,1.406 0.028,183.709 -0.005,185.008 L 0,0 z"
             id="path26"
             style="fill:#767779;fill-opacity:1;fill-rule:evenodd;stroke:none" /></g><path
           d="m 490.579,301.549 -16.086,0 0,-98.903 16.086,0 0,98.903 z m 17.368,19.02 c -0.034,-18.75 -0.089,-37.5 -0.096,-56.25 -0.014,-41.283 -0.004,-82.567 -0.004,-123.85 l 0,-4.917 -50.329,0 0,16.256 33.008,0 0,33.691 -33.4,0 0,135.07 50.821,0 z"
           id="path28"
           style="fill:#767779;fill-opacity:1;fill-rule:evenodd;stroke:none" /><path
           d="m 218.583,218.764 -16.191,0 0,-66.548 16.191,0 0,66.548 z m 17.285,101.805 c -0.037,-5.203 -0.113,-183.325 -0.113,-185.021 l -50.408,0 0,100.632 33.133,0 0,65.369 -16.23,0 0,-31.571 -17.202,0 0,50.591 50.82,0 z"
           id="path30"
           style="fill:#cf3c3d;fill-opacity:1;fill-rule:evenodd;stroke:none" /><g
           transform="translate(303.1055,320.5688)"
           id="g32"><path
             d="m 0,0 c -0.037,-5.203 -0.112,-183.336 -0.112,-185.025 l -50.3,0 0,16.26 33.111,0 c 0,11.289 0.216,22.539 0.216,33.695 l -33.621,0 c 0,1.774 0.039,134.555 0,135.07 l 17.087,0 c -0.045,-0.384 0.004,-116.643 0.004,-117.779 l 16.527,0 c 0,10.029 0.04,88.369 0.003,117.779 L 0,0 z"
             id="path34"
             style="fill:#cf3c3d;fill-opacity:1;fill-rule:evenodd;stroke:none" /></g><g
           transform="translate(373.4697,320.5688)"
           id="g36"><path
             d="m 0,0 0,-50.57 -17.024,0 0,31.55 -16.472,0 0,-65.238 33.199,0 0,-100.713 -50.223,0 0,49.885 16.724,0 0,-33.674 16.37,0 0,67.06 -33.392,0 0,101.7 L 0,0 z"
             id="path38"
             style="fill:#767779;fill-opacity:1;fill-rule:evenodd;stroke:none" /></g><g
           transform="translate(135.0107,320.5688)"
           id="g40"><path
             d="m 0,0 c -0.038,-11.324 -0.001,-166.959 -0.001,-168.76 l 16.381,0 0,33.688 16.879,0 0,-50.029 -50.346,0 c 0,1.58 0.036,184.587 -0.004,185.101 L 0,0 z"
             id="path42"
             style="fill:#cf3c3d;fill-opacity:1;fill-rule:evenodd;stroke:none" /></g><g
           transform="translate(511.0742,35.981)"
           id="g44"><path
             d="m 0,0 0,79.231 7.486,0 0,-71.983 7.03,0 0,72.125 7.375,0 L 21.891,0 0,0 z"
             id="path46"
             style="fill:#313030;fill-opacity:1;fill-rule:evenodd;stroke:none" /></g><path
           d="m 429.281,107.721 -6.511,0 0,-27.982 6.511,0 0,27.982 z m -14.374,-71.74 0,79.324 21.893,0 0,-79.324 -7.52,0 0,35.757 -6.554,0 0,-35.757 -7.819,0 z"
           id="path48"
           style="fill:#313030;fill-opacity:1;fill-rule:evenodd;stroke:none" /><path
           d="m 84.97,107.717 -7.03,0 0,-27.973 7.03,0 0,27.973 z m -14.852,-71.736 0,79.324 21.892,0 0,-79.324 -7.037,0 0,35.757 -7.035,0 0,-35.757 -7.82,0 z"
           id="path50"
           style="fill:#313030;fill-opacity:1;fill-rule:evenodd;stroke:none" /><g
           transform="translate(199.1216,35.981)"
           id="g52"><path
             d="m 0,0 0,79.223 7.408,0 0,-35.415 7.213,0 0,35.559 7.271,0 0,-79.367 -7.038,0 0,35.757 -7.035,0 L 7.819,0 0,0 z"
             id="path54"
             style="fill:#313030;fill-opacity:1;fill-rule:evenodd;stroke:none" /></g><g
           transform="translate(102.1738,35.981)"
           id="g56"><path
             d="m 0,0 0,79.324 21.892,0 0,-79.324 -7.306,0 0,71.738 -6.983,0 C 7.603,58.852 7.575,46.208 7.611,33.581 7.644,22.387 7.535,11.193 7.606,0 L 0,0 z"
             id="path58"
             style="fill:#313030;fill-opacity:1;fill-rule:evenodd;stroke:none" /></g><g
           transform="translate(263.2324,35.981)"
           id="g60"><path
             d="m 0,0 0,79.324 21.891,0 0,-79.324 -7.304,0 c -0.089,1.42 -0.002,70.353 -0.002,71.721 l -6.982,0 C 7.603,58.835 7.598,11.088 7.598,0 L 0,0 z"
             id="path62"
             style="fill:#313030;fill-opacity:1;fill-rule:evenodd;stroke:none" /></g><path
           d="m 358.624,65.199 6.524,0 0,42.621 -6.524,0 0,-42.621 z m -7.825,-29.218 0,79.238 21.613,0 0,-57.622 -13.796,0 0,-21.616 -7.817,0 z"
           id="path64"
           style="fill:#313030;fill-opacity:1;fill-rule:evenodd;stroke:none" /><g
           transform="translate(295.2871,35.981)"
           id="g66"><path
             d="m 0,0 0,79.234 21.667,0 0,-7.516 -13.885,0 0,-64.44 6.721,0 0,36.53 7.389,0 L 21.892,0 0,0 z"
             id="path68"
             style="fill:#313030;fill-opacity:1;fill-rule:evenodd;stroke:none" /></g><g
           transform="translate(447.3203,35.981)"
           id="g70"><path
             d="m 0,0 0,7.249 14.26,0 0,28.542 -14.265,0 0,43.534 7.059,0 0,-35.518 7.211,0 0,35.521 7.269,0 L 21.534,0 0,0 z"
             id="path72"
             style="fill:#313030;fill-opacity:1;fill-rule:evenodd;stroke:none" /></g><g
           transform="translate(134.5801,35.981)"
           id="g74"><path
             d="m 0,0 0,7.249 14.27,0 0,28.542 -14.267,0 0,43.537 7.057,0 0,-35.521 7.211,0 0,35.521 7.27,0 L 21.541,0 0,0 z"
             id="path76"
             style="fill:#313030;fill-opacity:1;fill-rule:evenodd;stroke:none" /></g><g
           transform="translate(479.0186,35.981)"
           id="g78"><path
             d="m 0,0 0,79.336 21.617,0 0,-21.496 -6.888,0 0,13.998 -6.867,0 0,-28.03 13.769,0 0,-8.02 -13.77,0 L 7.861,0 0,0 z"
             id="path80"
             style="fill:#313030;fill-opacity:1;fill-rule:evenodd;stroke:none" /></g><g
           transform="translate(231.1768,35.981)"
           id="g82"><path
             d="m 0,0 0,7.278 7.046,0 0,64.57 -6.715,0 0,7.413 21.354,0 0,-7.413 -6.658,0 0,-64.57 6.864,0 L 21.891,0 0,0 z"
             id="path84"
             style="fill:#313030;fill-opacity:1;fill-rule:evenodd;stroke:none" /></g><g
           transform="translate(382.8535,35.981)"
           id="g86"><path
             d="m 0,0 0,79.233 7.49,0 0,-71.955 6.961,0 0,14.383 7.44,0 L 21.891,0 0,0 z"
             id="path88"
             style="fill:#313030;fill-opacity:1;fill-rule:evenodd;stroke:none" /></g><g
           transform="translate(543.1289,35.981)"
           id="g90"><path
             d="m 0,0 0,79.378 7.491,0 0,-72.13 6.96,0 0,14.413 7.441,0 L 21.892,0 0,0 z"
             id="path92"
             style="fill:#313030;fill-opacity:1;fill-rule:evenodd;stroke:none" /></g><g
           transform="translate(173.54,35.981)"
           id="g94"><path
             d="m 0,0 c 0.072,15.862 -0.004,63.373 -0.004,71.718 l -6.992,0 0,7.604 21.477,0 0,-7.604 -6.882,0 L 7.599,0 0,0 z"
             id="path96"
             style="fill:#313030;fill-opacity:1;fill-rule:evenodd;stroke:none" /></g><g
           transform="translate(423.6104,151.8091)"
           id="g98"><path
             d="m 0,0 16.81,0 0,-16.269 -50.147,0 0,16.269 16.441,0 0,101.074 -16.55,0 0,16.694 33.446,0 L 0,0 z"
             id="path100"
             style="fill:#767779;fill-opacity:1;fill-rule:evenodd;stroke:none" /></g></g></g></g></svg>
