<?xml version="1.0" encoding="UTF-8" standalone="no"?>
<!-- Created with Inkscape (http://www.inkscape.org/) -->

<svg
   xmlns:dc="http://purl.org/dc/elements/1.1/"
   xmlns:cc="http://creativecommons.org/ns#"
   xmlns:rdf="http://www.w3.org/1999/02/22-rdf-syntax-ns#"
   xmlns:svg="http://www.w3.org/2000/svg"
   xmlns="http://www.w3.org/2000/svg"
   version="1.1"
   viewbox="0 0 208.81055 108.53859"
   width="208.81055"
   height="108.53859"
   id="svg3051"
   xml:space="preserve"><metadata
     id="metadata3057"><rdf:RDF><cc:Work
         rdf:about=""><dc:format>image/svg+xml</dc:format><dc:type
           rdf:resource="http://purl.org/dc/dcmitype/StillImage" /><dc:title></dc:title></cc:Work></rdf:RDF></metadata><defs
     id="defs3055"><clipPath
       id="clipPath3067"><path
         d="m 0,6.15 198,0 0,129.4391 -198,0 L 0,6.15 z"
         id="path3069" /></clipPath></defs><g
     transform="matrix(1.25,0,0,-1.25,-22.44345,140.66425)"
     id="g3059"><g
       id="g3061" /><g
       id="g3063"><g
         clip-path="url(#clipPath3067)"
         id="g3065"><path
           d="m 63.99318,65.39038 c -4.88557,-4.61373 -11.48394,-7.45192 -18.74196,-7.45192 -0.90868,0 -1.80595,0.04562 -2.69181,0.13117 l 0,-11.56759 -24.60465,0 0,38.73288 c 0,15.07488 12.21963,27.29648 27.29646,27.29648 7.25802,0 13.85639,-2.8382 18.74196,-7.4519 4.88557,4.6137 11.48394,7.4519 18.74196,7.4519 7.25992,0 13.85829,-2.8382 18.74386,-7.4519 4.8856,4.6137 11.482,7.4519 18.7439,7.4519 7.258,0 13.8563,-2.8382 18.7419,-7.4519 4.8856,4.6137 11.4821,7.4519 18.742,7.4519 15.0749,0 27.2964,-12.2216 27.2964,-27.29648 l 0,-27.29646 -24.6046,0 c -0.922,-0.15208 -1.8326,0 -2.6918,0 -7.2599,0 -13.8564,2.83819 -18.742,7.45192 -4.8856,-4.61373 -11.4839,-7.45192 -18.7419,-7.45192 -0.9087,0 -1.8079,0.04562 -2.6919,0.13117 l 0,-11.56759 -24.6065,0 0,13.40205 c -3.14996,-1.26796 -6.59077,-1.96563 -10.18936,-1.96563 -7.25802,0 -13.85639,2.83819 -18.74196,7.45192"
           id="path3071"
           style="fill:#ffffff;fill-opacity:1;fill-rule:nonzero;stroke:none" /><path
           d="m 112.7238,64.02337 0,-12.71579 -14.99319,0 0,17.16413 C 93.74992,64.90924 88.49555,62.744 82.73552,62.744 74.91291,62.744 68.02368,66.7361 63.99356,72.79839 59.96344,66.7361 53.07422,62.744 45.2497,62.744 c -2.62718,0 -5.15171,0.45053 -7.49564,1.27937 l 0,-12.71579 -14.99509,0 0,33.92715 c 0,12.42113 10.0696,22.49077 22.49073,22.49077 7.82452,0 14.71374,-3.9921 18.74386,-10.05253 4.03012,6.06043 10.91935,10.05253 18.74196,10.05253 7.82262,0 14.71374,-3.9921 18.74198,-10.05253 4.0301,6.06043 10.9212,10.05253 18.7438,10.05253 7.8246,0 14.7138,-3.9921 18.742,-10.05253 4.032,6.06043 10.9212,10.05253 18.7439,10.05253 12.4211,0 22.4907,-10.06964 22.4907,-22.49077 l 0,-22.49073 -14.9932,0 0,2.68991 c -1.3953,-1.55882 -4.8685,-2.68991 -7.4975,-2.68991 -7.8227,0 -14.7119,3.9921 -18.7439,10.05439 C 134.9351,66.7361 128.0459,62.744 120.2213,62.744 c -2.629,0 -5.1517,0.45053 -7.4975,1.27937"
           id="path3073"
           style="fill:#fcd006;fill-opacity:1;fill-rule:nonzero;stroke:none" /><path
           d="m 112.7238,64.02337 -1.4999,0 0,-11.2178 -11.9953,0 0,19.0195 -2.49792,-2.23747 c -3.71835,-3.32485 -8.61343,-5.34371 -13.99516,-5.34562 -7.30364,0 -13.72902,3.72596 -17.4949,9.38714 l -1.24706,1.87819 -1.24895,-1.87819 C 58.97872,67.96794 52.55525,64.24198 45.2497,64.24198 c -2.45609,0 -4.80953,0.42203 -6.99758,1.19383 l -1.99795,0.70717 0,-13.33741 -11.99531,0 0,32.42916 c 0,5.80185 2.34583,11.04101 6.14783,14.84297 3.80391,3.802 9.04306,6.1479 14.84301,6.1498 7.30555,0 13.72902,-3.726 17.49491,-9.38527 l 1.24895,-1.87628 1.24706,1.87628 c 3.76588,5.65927 10.19126,9.38527 17.4949,9.38527 7.30554,0 13.72902,-3.7241 17.49488,-9.38527 l 1.2471,-1.87628 1.2489,1.87628 c 3.7659,5.65927 10.1894,9.38527 17.4949,9.38527 7.3056,0 13.7291,-3.726 17.4949,-9.38527 l 1.2471,-1.87818 1.249,1.87818 c 3.7677,5.66117 10.1912,9.38527 17.4949,9.38527 5.7999,-0.002 11.041,-2.3478 14.843,-6.1498 3.802,-3.80196 6.1478,-9.04112 6.1497,-14.84297 l 0,-20.99275 -11.9972,0 0,1.19193 0,3.91986 -2.6158,-2.92183 c -0.2015,-0.22622 -0.5589,-0.51137 -1.0246,-0.77751 -0.6939,-0.40301 -1.6178,-0.76991 -2.5778,-1.02084 -0.9562,-0.25283 -1.9523,-0.39161 -2.7773,-0.39161 -7.3037,0 -13.7272,3.72596 -17.4949,9.38714 l -1.249,1.87819 -1.2471,-1.87819 c -3.7658,-5.66118 -10.1893,-9.38714 -17.4949,-9.38714 -2.458,0 -4.8095,0.42203 -6.9975,1.19383 l -1.9999,0.70717 0,-2.11961 1.4999,0 -0.5,-1.41434 c 2.5037,-0.88397 5.1974,-1.36492 7.9975,-1.36492 8.3416,0 15.6985,4.26204 19.991,10.72544 l -1.249,0.82884 -1.2471,-0.83074 c 4.2925,-6.4615 11.6494,-10.72354 19.991,-10.72354 1.5265,0.0038 3.1784,0.31746 4.703,0.84404 0.7623,0.26614 1.4904,0.58741 2.1539,0.96951 0.6615,0.384 1.2603,0.82504 1.7565,1.37633 l -1.1159,0.99992 -1.4999,0 0,-4.1898 17.993,0 0,23.99062 c -0.002,13.24997 -10.7407,23.98867 -23.9906,23.99057 -8.3416,0 -15.6985,-4.2601 -19.991,-10.72349 l 1.2471,-0.82884 1.249,0.82884 c -4.2925,6.46339 -11.6494,10.72349 -19.991,10.72349 -8.3415,0 -15.6984,-4.2601 -19.9909,-10.72349 l 1.2471,-0.82884 1.2489,0.82884 c -4.29242,6.46339 -11.64929,10.72349 -19.99088,10.72349 -8.34159,0 -15.69656,-4.2601 -19.99091,-10.72349 l 1.24895,-0.82884 1.24706,0.82884 C 60.94816,104.9652 53.59129,109.2253 45.2497,109.2253 31.99973,109.2234 21.26098,98.4847 21.26098,85.23473 l 0,-35.42704 17.99107,0 0,14.21568 -1.49799,0 -0.49996,-1.41434 c 2.50171,-0.88397 5.19543,-1.36492 7.9956,-1.36492 8.34159,0 15.69846,4.26204 19.99092,10.72544 l -1.24706,0.82884 -1.24895,-0.82884 c 4.29245,-6.4634 11.64932,-10.72544 19.99091,-10.72544 6.13833,0 11.75388,2.31351 15.99502,6.10981 l -0.99993,1.11779 -1.49989,0 0,-18.66402 17.99298,0 0,14.21568 -1.4999,0 -0.5,-1.41434 0.5,1.41434 z"
           id="path3075"
           style="fill:#ed1c24;fill-opacity:1;fill-rule:nonzero;stroke:none" /><path
           d="m 37.75369,85.23511 c 0,4.14038 3.35526,7.49755 7.49754,7.49755 4.14038,0 7.49755,-3.35717 7.49755,-7.49755 0,-4.14037 -3.35717,-7.49754 -7.49755,-7.49754 -4.14228,0 -7.49754,3.35717 -7.49754,7.49754"
           id="path3077"
           style="fill:#ffffff;fill-opacity:1;fill-rule:nonzero;stroke:none" /><path
           d="m 37.75369,85.23511 1.49799,0 c 0.0019,1.66148 0.66915,3.15186 1.75842,4.24113 1.08928,1.08738 2.57966,1.75653 4.24113,1.75653 1.65958,0 3.14996,-0.66915 4.24113,-1.75653 1.08738,-1.08927 1.75463,-2.57965 1.75653,-4.24113 -0.0019,-1.66147 -0.66915,-3.14995 -1.75653,-4.24113 -1.09117,-1.08737 -2.58155,-1.75652 -4.24113,-1.75652 -1.66147,0 -3.15185,0.66915 -4.24113,1.75652 -1.08927,1.08928 -1.75652,2.57966 -1.75842,4.24113 l -1.49799,0 -1.49989,0 c 0.0019,-4.96921 4.02822,-8.99553 8.99743,-8.99553 4.96732,0 8.99363,4.02632 8.99554,8.99553 -0.0019,4.96922 -4.02822,8.99554 -8.99554,8.99554 -4.96921,0 -8.99553,-4.02632 -8.99743,-8.99554 l 1.49989,0 z"
           id="path3079"
           style="fill:#ed1c24;fill-opacity:1;fill-rule:nonzero;stroke:none" /><path
           d="m 75.23854,85.23511 c 0,4.14038 3.35717,7.49755 7.49754,7.49755 4.14038,0 7.49755,-3.35717 7.49755,-7.49755 0,-4.14037 -3.35717,-7.49754 -7.49755,-7.49754 -4.14037,0 -7.49754,3.35717 -7.49754,7.49754"
           id="path3081"
           style="fill:#ffffff;fill-opacity:1;fill-rule:nonzero;stroke:none" /><path
           d="m 75.23854,85.23511 1.49989,0 c 0,1.66148 0.66915,3.15186 1.75652,4.24113 1.08928,1.08738 2.57966,1.75653 4.24113,1.75653 1.66148,0 3.14996,-0.66915 4.24114,-1.75653 1.08737,-1.08927 1.75462,-2.57965 1.75652,-4.24113 -0.0019,-1.66147 -0.66915,-3.14995 -1.75652,-4.24113 -1.09118,-1.08737 -2.57966,-1.75652 -4.24114,-1.75652 -1.66147,0 -3.15185,0.66915 -4.24113,1.75652 -1.08737,1.08928 -1.75652,2.57966 -1.75652,4.24113 l -1.49989,0 -1.49989,0 c 0.0019,-4.96921 4.02822,-8.99553 8.99743,-8.99553 4.96732,0 8.99364,4.02632 8.99554,8.99553 -0.0019,4.96922 -4.02822,8.99554 -8.99554,8.99554 -4.96921,0 -8.99553,-4.02632 -8.99743,-8.99554 l 1.49989,0 z"
           id="path3083"
           style="fill:#ed1c24;fill-opacity:1;fill-rule:nonzero;stroke:none" /><path
           d="m 112.7238,85.23511 c 0,4.14038 3.3572,7.49755 7.4975,7.49755 4.1423,0 7.4976,-3.35717 7.4976,-7.49755 0,-4.14037 -3.3553,-7.49754 -7.4976,-7.49754 -4.1403,0 -7.4975,3.35717 -7.4975,7.49754"
           id="path3085"
           style="fill:#ffffff;fill-opacity:1;fill-rule:nonzero;stroke:none" /><path
           d="m 112.7238,85.23511 1.4999,0 c 0,1.66148 0.6691,3.15186 1.7565,4.24113 1.0912,1.08738 2.5797,1.75653 4.2411,1.75653 1.6615,0 3.15,-0.66915 4.2412,-1.75653 1.0873,-1.08927 1.7546,-2.57965 1.7565,-4.24113 -0.002,-1.66147 -0.6692,-3.15185 -1.7565,-4.24113 -1.0912,-1.08737 -2.5797,-1.75652 -4.2412,-1.75652 -1.6595,0 -3.1499,0.66915 -4.2411,1.75652 -1.0874,1.09118 -1.7565,2.57966 -1.7565,4.24113 l -1.4999,0 -1.4999,0 c 0.002,-4.96921 4.0282,-8.99553 8.9974,-8.99553 4.9693,0 8.9956,4.02822 8.9956,8.99553 0,4.96922 -4.0263,8.99554 -8.9956,8.99554 -4.9692,0 -8.9955,-4.02632 -8.9974,-8.99554 l 1.4999,0 z"
           id="path3087"
           style="fill:#ed1c24;fill-opacity:1;fill-rule:nonzero;stroke:none" /><path
           d="m 150.21,85.23511 c 0,4.14038 3.3571,7.49755 7.4975,7.49755 4.1385,0 7.4976,-3.35717 7.4976,-7.49755 0,-4.14037 -3.3591,-7.49754 -7.4976,-7.49754 -4.1404,0 -7.4975,3.35717 -7.4975,7.49754"
           id="path3089"
           style="fill:#ffffff;fill-opacity:1;fill-rule:nonzero;stroke:none" /><path
           d="m 150.21,85.23511 1.4999,0 c 0,1.66148 0.6691,3.15186 1.7565,4.24113 1.0893,1.08738 2.5797,1.75653 4.2411,1.75653 1.6596,0 3.15,-0.66915 4.2412,-1.75653 1.0873,-1.08927 1.7546,-2.57965 1.7565,-4.24113 -0.002,-1.66147 -0.6692,-3.14995 -1.7565,-4.24113 -1.0912,-1.08737 -2.5816,-1.75652 -4.2412,-1.75652 -1.6614,0 -3.1499,0.66915 -4.2411,1.75652 -1.0874,1.09118 -1.7565,2.57966 -1.7565,4.24113 l -1.4999,0 -1.498,0 c 0,-4.96921 4.0263,-8.99553 8.9955,-8.99553 4.9673,0 8.9956,4.02632 8.9956,8.99553 0,4.96922 -4.0283,8.99554 -8.9956,8.99554 -4.9692,0 -8.9955,-4.02632 -8.9955,-8.99554 l 1.498,0 z"
           id="path3091"
           style="fill:#ed1c24;fill-opacity:1;fill-rule:nonzero;stroke:none" /><path
           d="m 157.7068,88.64778 c 1.8858,0 3.4123,-1.5284 3.4123,-3.41229 0,-1.88389 -1.5265,-3.4123 -3.4123,-3.4123 -1.8839,0 -3.4123,1.52841 -3.4123,3.4123 0,1.88389 1.5284,3.41229 3.4123,3.41229"
           id="path3093"
           style="fill:#fcd006;fill-opacity:1;fill-rule:nonzero;stroke:none" /><path
           d="m 45.25045,88.64778 c 1.88389,0 3.4123,-1.5284 3.4123,-3.41229 0,-1.88389 -1.52841,-3.4123 -3.4123,-3.4123 -1.88389,0 -3.41229,1.52841 -3.41229,3.4123 0,1.88389 1.5284,3.41229 3.41229,3.41229"
           id="path3095"
           style="fill:#fcd006;fill-opacity:1;fill-rule:nonzero;stroke:none" /><path
           d="m 82.73571,88.64778 c 1.88579,0 3.41229,-1.5284 3.41229,-3.41229 0,-1.88389 -1.5265,-3.4123 -3.41229,-3.4123 -1.88579,0 -3.4123,1.52841 -3.4123,3.4123 0,1.88389 1.52651,3.41229 3.4123,3.41229"
           id="path3097"
           style="fill:#fcd006;fill-opacity:1;fill-rule:nonzero;stroke:none" /><path
           d="m 120.2223,88.64778 c 1.8839,0 3.4123,-1.5284 3.4123,-3.41229 0,-1.88389 -1.5284,-3.4123 -3.4123,-3.4123 -1.8858,0 -3.4142,1.52841 -3.4142,3.4123 0,1.88389 1.5284,3.41229 3.4142,3.41229"
           id="path3099"
           style="fill:#fcd006;fill-opacity:1;fill-rule:nonzero;stroke:none" /><path
           d="m 21.17373,28.96532 4.06814,0 0,1.469473 -4.06814,0 0,-1.469473 z"
           id="path3101"
           style="fill:#231f20;fill-opacity:1;fill-rule:nonzero;stroke:none" /><path
           d="m 28.59866,25.85491 0,10.19316 5.67638,0 -0.50946,-1.56262 -3.29444,0 0,-2.64429 3.29444,0 0,-1.56262 -3.29444,0 0,-2.86101 3.8039,0 0,-1.56262 -5.67638,0 z"
           id="path3103"
           style="fill:#231f20;fill-opacity:1;fill-rule:nonzero;stroke:none" /><path
           d="m 44.96418,25.85491 -4.60992,5.97104 c -0.43343,0.5722 -0.72619,0.95811 -1.00563,1.39153 l -0.03042,0 c 0.03042,-0.34027 0.04563,-0.88206 0.04563,-1.36111 l 0,-6.00146 -1.87059,0 0,10.19316 1.9029,0 4.43884,-5.73721 c 0.47905,-0.61973 0.7585,-1.00563 1.00563,-1.42385 l 0.03041,0 c -0.03041,0.44863 -0.03041,1.03604 -0.03041,1.48468 l 0,5.67638 1.85537,0 0,-10.19316 -1.73181,0 z"
           id="path3105"
           style="fill:#231f20;fill-opacity:1;fill-rule:nonzero;stroke:none" /><path
           d="m 50.31663,25.85491 0,10.19316 5.67639,0 -0.50947,-1.56262 -3.29443,0 0,-2.64429 3.29443,0 0,-1.56262 -3.29443,0 0,-2.86101 3.8039,0 0,-1.56262 -5.67639,0 z"
           id="path3107"
           style="fill:#231f20;fill-opacity:1;fill-rule:nonzero;stroke:none" /><path
           d="m 67.61041,25.85491 0,6.06419 c 0,0.3707 0,0.69577 0.03041,1.09878 l -0.01521,0 c -0.13877,-0.32697 -0.44863,-0.80602 -0.61782,-1.05315 l -2.0892,-3.27923 -0.92769,0 -2.2888,3.32675 c -0.20151,0.27755 -0.41822,0.5722 -0.61973,1.00563 l -0.03041,0 c 0.03041,-0.41822 0.03041,-0.74329 0.03041,-1.05315 l 0,-6.10982 -1.87058,0 0,10.19316 1.74702,0 2.81538,-4.08334 c 0.29465,-0.41822 0.49426,-0.74139 0.68056,-1.08167 l 0.03041,0 c 0.15588,0.32507 0.34028,0.68055 0.63494,1.12919 l 2.59866,4.03582 1.76413,0 0,-10.19316 -1.87248,0 z"
           id="path3109"
           style="fill:#231f20;fill-opacity:1;fill-rule:nonzero;stroke:none" /><path
           d="m 81.4858,25.85491 0,6.06419 c 0,0.3707 0,0.69577 0.03041,1.09878 l -0.0152,0 c -0.13878,-0.32697 -0.44864,-0.80602 -0.61783,-1.05315 l -2.0892,-3.27923 -0.92769,0 -2.2888,3.32675 c -0.20151,0.27755 -0.41822,0.5722 -0.61973,1.00563 l -0.03041,0 c 0.03041,-0.41822 0.03041,-0.74329 0.03041,-1.05315 l 0,-6.10982 -1.87058,0 0,10.19316 1.74702,0 2.81538,-4.08334 c 0.29465,-0.41822 0.49426,-0.74139 0.68056,-1.08167 l 0.03041,0 c 0.15589,0.32507 0.34028,0.68055 0.63494,1.12919 l 2.59866,4.03582 1.76413,0 0,-10.19316 -1.87248,0 z"
           id="path3111"
           style="fill:#231f20;fill-opacity:1;fill-rule:nonzero;stroke:none" /><path
           d="m 93.48966,25.85491 -1.00563,2.55304 -3.63471,0 -0.9429,-2.55304 -1.84207,0 3.95979,10.24069 1.36111,0 4.10046,-10.24069 -1.99605,0 z m -4.14608,10.84331 c -0.53988,0 -0.97331,0.44863 -0.97331,0.99042 0,0.54178 0.43343,0.99042 0.97331,0.99042 0.52658,0 0.96,-0.44864 0.96,-0.99042 0,-0.54179 -0.43342,-0.99042 -0.96,-0.99042 m 1.73371,-4.42363 c -0.1863,0.50947 -0.30986,0.92769 -0.3878,1.26797 l -0.01521,0 c -0.06083,-0.35549 -0.20151,-0.7585 -0.3707,-1.23756 l -0.88206,-2.36674 2.4751,0 -0.81933,2.33633 z m 1.15961,4.42363 c -0.52658,0 -0.97521,0.44863 -0.97521,0.99042 0,0.54178 0.44863,0.99042 0.97521,0.99042 0.52658,0 0.97521,-0.44864 0.97521,-0.99042 0,-0.54179 -0.44863,-0.99042 -0.97521,-0.99042"
           id="path3113"
           style="fill:#231f20;fill-opacity:1;fill-rule:nonzero;stroke:none" /><path
           d="m 105.6635,25.85491 -4.61,5.97104 c -0.4334,0.5722 -0.7261,0.95811 -1.0056,1.39153 l -0.0304,0 c 0.0304,-0.34027 0.0456,-0.88206 0.0456,-1.36111 l 0,-6.00146 -1.87056,0 0,10.19316 1.90286,0 4.4389,-5.73721 c 0.479,-0.61973 0.7585,-1.00563 1.0056,-1.42385 l 0.0304,0 c -0.0304,0.44863 -0.0304,1.03604 -0.0304,1.48468 l 0,5.67638 1.8554,0 0,-10.19316 -1.7318,0 z"
           id="path3115"
           style="fill:#231f20;fill-opacity:1;fill-rule:nonzero;stroke:none" /><path
           d="m 118.6264,29.41299 -0.5095,0 0,-3.55867 -1.8725,0 0,10.19506 2.6139,0 c 2.2128,0 3.667,-1.1444 3.667,-3.27922 0,-1.42385 -1.0056,-3.35717 -3.8989,-3.35717 m 0.0456,5.05856 -0.5551,0 0,-3.58909 0.5874,0 c 1.3288,0 1.9334,0.71098 1.9334,1.84017 0,0.99042 -0.6502,1.74892 -1.9657,1.74892"
           id="path3117"
           style="fill:#231f20;fill-opacity:1;fill-rule:nonzero;stroke:none" /><path
           d="m 131.1247,25.85491 -1.0056,2.55304 -3.6347,0 -0.9429,-2.55304 -1.8421,0 3.9598,10.24069 1.3611,0 4.1005,-10.24069 -1.9961,0 z m -2.4124,6.41968 c -0.1863,0.50947 -0.3098,0.92769 -0.3878,1.26797 l -0.0152,0 c -0.0608,-0.35549 -0.2015,-0.7585 -0.3707,-1.23756 l -0.882,-2.36674 2.4751,0 -0.8194,2.33633 z"
           id="path3119"
           style="fill:#231f20;fill-opacity:1;fill-rule:nonzero;stroke:none" /><path
           d="m 135.8268,25.85338 1.87249,0 0,10.19506 -1.87249,0 0,-10.19506 z"
           id="path3121"
           style="fill:#231f20;fill-opacity:1;fill-rule:nonzero;stroke:none" /><path
           d="m 148.7898,25.85491 -4.61,5.97104 c -0.4334,0.5722 -0.7261,0.95811 -1.0056,1.39153 l -0.0304,0 c 0.0304,-0.34027 0.0475,-0.88206 0.0475,-1.36111 l 0,-6.00146 -1.8725,0 0,10.19316 1.9029,0 4.4389,-5.73721 c 0.479,-0.61973 0.7585,-1.00563 1.0056,-1.42385 l 0.0304,0 c -0.0304,0.44863 -0.0304,1.03604 -0.0304,1.48468 l 0,5.67638 1.8554,0 0,-10.19316 -1.7318,0 z"
           id="path3123"
           style="fill:#231f20;fill-opacity:1;fill-rule:nonzero;stroke:none" /><path
           d="m 162.6186,27.17 c -0.9277,-0.92769 -2.2128,-1.46947 -3.7431,-1.46947 -1.4847,0 -2.707,0.43342 -3.6043,1.25276 -1.036,0.92768 -1.6082,2.30401 -1.6082,3.89895 0,1.51509 0.5265,2.84579 1.4694,3.8039 0.9125,0.92769 2.1957,1.48468 3.7431,1.48468 1.6406,0 3.0017,-0.5722 3.9142,-1.57783 0.8497,-0.92769 1.2831,-2.19566 1.2831,-3.61951 0,-1.49988 -0.5113,-2.84579 -1.4542,-3.77348 m -3.7583,7.4082 c -1.9029,0 -3.2336,-1.37633 -3.2336,-3.66513 0,-2.30401 1.3307,-3.68224 3.2336,-3.68224 1.8877,0 3.2165,1.37823 3.2165,3.68224 0,2.22797 -1.268,3.66513 -3.2165,3.66513"
           id="path3125"
           style="fill:#231f20;fill-opacity:1;fill-rule:nonzero;stroke:none" /><path
           d="m 173.3218,25.85491 -1.0057,2.55304 -3.6347,0 -0.9429,-2.55304 -1.842,0 3.9597,10.24069 1.3612,0 4.1004,-10.24069 -1.996,0 z m -2.4124,6.41968 c -0.1863,0.50947 -0.3099,0.92769 -0.3878,1.26797 l -0.0152,0 c -0.0608,-0.35549 -0.2015,-0.7585 -0.3707,-1.23756 l -0.8821,-2.36674 2.4751,0 -0.8193,2.33633 z"
           id="path3127"
           style="fill:#231f20;fill-opacity:1;fill-rule:nonzero;stroke:none" /><path
           d="m 177.761,28.96532 4.06814,0 0,1.469473 -4.06814,0 0,-1.469473 z"
           id="path3129"
           style="fill:#231f20;fill-opacity:1;fill-rule:nonzero;stroke:none" /></g></g></g></svg>
